#!OML:ASF F:\VICON\USERDATA\INSTALL\rory3\rory3.ASF
:FULLY-SPECIFIED
:DEGREES
106
root 0.5056907807264693 17.66482919946155 38.711493273997085 1.3032277541488735 2.0776297194539217 -0.5420117390588937
lfemur -17.61254985170496 -0.8181018543111496 -22.562976417410233
ltibia 43.09249414499891
lfoot 2.7675077900835903 -8.859590453719195
ltoes -9.931282942719568
rfemur -17.489303648022155 2.650456141981953 27.18393075292007
rtibia 55.79195516010483
rfoot 2.36006276389688 -6.172700101330395
rtoes -3.14516760922173
lowerback 13.14675751597993 0.6284180938944779 0.5240299076267523
upperback -0.6359289972553926 2.034940724965985 0.9206615539562776
thorax -8.198713603526445 1.227917380979715 0.6338820819893379
lowerneck -18.548133389242395 -4.15711935795868 -2.2677473095816083
upperneck 13.672145104637556 -5.7465099292519115 3.2545294787868633
head 7.3887454513543895 -2.5905297499935096 0.7333256099029567
lclavicle 3.0724827264545893e-16 -4.3067221206564905e-16
lhumerus -44.95544339834507 -15.10553029070844 98.14182691129274
lradius 109.29834885514343
lwrist 32.41148019874195
lhand -25.973605849373186 3.0561850865626132
lfingers 7.125020000000001
lthumb 0.695732547964059 33.08654014368631
rclavicle 3.0728743657241976e-16 -4.3064985682852227e-16
rhumerus -39.77228888493157 10.162953408058101 -96.23189819247477
rradius 102.93660415851143
rwrist -19.291559944443534
rhand -18.479774492572822 37.4254947695411
rfingers 7.125020000000001
rthumb 7.989724891679505 7.382822127543891
107
root 0.5017463541913314 17.624494170632165 39.490481217180395 1.3305633910231902 2.264837742937932 -0.3227132273273301
lfemur -16.01373446061194 -0.6890720385021962 -22.63437694629766
ltibia 42.34986980174588
lfoot 3.800521611609002 -9.277521503230915
ltoes -9.959363686377518
rfemur -16.224566237513407 2.890165562142302 27.676378637475477
rtibia 56.49926643604548
rfoot 2.0266270779659625 -6.153589512944628
rtoes -3.3205324633951365
lowerback 13.269749394957195 0.5089891658285485 0.20081456212242732
upperback -0.5734638040169415 1.7973920690537946 0.8844349373005482
thorax -8.182921563134144 1.1815813511973174 0.9511304595191222
lowerneck -18.566611438501713 -4.0102240008033725 -2.2326300126929017
upperneck 13.734874321440039 -5.653290710353877 3.206147442603737
head 7.38814065389706 -2.610067228430221 0.735152641174239
lclavicle 3.0724827264545893e-16 -4.3067221206564905e-16
lhumerus -42.99406998124242 -14.897174415114876 98.30883687090467
lradius 109.44104551742595
lwrist 32.33489754346251
lhand -26.008343173127315 3.07404290484757
lfingers 7.125020000000001
lthumb 0.6268045931833593 33.055816948182276
rclavicle 3.0728743657241976e-16 -4.3064985682852227e-16
rhumerus -40.89191194497479 9.861341160505242 -96.4560723927852
rradius 103.02723101887943
rwrist -19.270517493945896
rhand -18.475958572919147 37.43772904103125
rfingers 7.125020000000001
rthumb 8.00367053860495 7.397768163512705
108
root 0.48937068264053674 17.563177542300128 39.27223689564574 1.3140722550482828 2.2575512614132993 -0.21204316617457408
lfemur -16.23019027249056 -0.8077016529651162 -23.002209677838202
ltibia 41.31843670586156
lfoot 5.978785682435715 -9.970244617425479
ltoes -9.785236195773843
rfemur -16.260519899610564 2.8408550365623326 27.73814454275835
rtibia 56.72474797013643
rfoot 2.0588117876802943 -5.938723029620129
rtoes -3.3573493237347716
lowerback 13.340907331576844 0.3376909676059965 -0.11916835424660555
upperback -0.5224589794388809 1.5386637432551669 0.8327556469110791
thorax -8.213297718484869 1.0614229080175444 1.1711155067339496
lowerneck -18.643519712787196 -3.9111079431278237 -2.2375241012263865
upperneck 13.837665014490394 -5.499865989299003 3.186924024078941
head 7.396028243121534 -2.619692308396576 0.7404418203697988
lclavicle 3.0724827264545893e-16 -4.3067221206564905e-16
lhumerus -42.416536548116085 -15.370573502280639 98.19126108471748
lradius 109.83692171259413
lwrist 32.275626660251774
lhand -25.95162743629746 3.132187431861027
lfingers 7.125020000000001
lthumb 0.5498708980709197 32.96513063820947
rclavicle 3.0728743657241976e-16 -4.3064985682852227e-16
rhumerus -41.761119658578004 9.608310997759837 -96.6186245042023
rradius 103.12114869755952
rwrist -19.34753086679932
rhand -18.49289088607816 37.407723649454226
rfingers 7.125020000000001
rthumb 7.986210442007138 7.352811158858445
109
root 0.494537571663127 17.555669268154507 40.297772282983786 1.4413055708065514 2.4493388243473624 -0.02395514669290555
lfemur -13.739586833003417 -0.6371666218375557 -23.017182703168878
ltibia 40.164648129362135
lfoot 7.19810798487653 -10.36494284114067
ltoes -9.654700153526294
rfemur -17.124738049119422 2.8847760406496645 27.74208611284642
rtibia 56.76323606631121
rfoot 2.5320199109665196 -5.638577881098323
rtoes -4.322672909895694
lowerback 13.373679197896221 0.16588759856586666 -0.41083198415654465
upperback -0.46551348562386186 1.3414503628246388 0.8069538687681826
thorax -8.279471375945088 0.8637136553081293 1.0818332613088142
lowerneck -18.764944522995307 -3.8477538428743565 -2.260358488032609
upperneck 13.980846969369832 -5.283916498485396 3.191589731128524
head 7.402850691321434 -2.618839422167706 0.7448033809149914
lclavicle 3.0724827264545893e-16 -4.3067221206564905e-16
lhumerus -41.377246777540755 -15.163103056162338 98.2313962600888
lradius 110.0876764867701
lwrist 32.2743617562455
lhand -25.938762646625566 3.0707489081616632
lfingers 7.125020000000001
lthumb 0.5354345236681125 32.961550760178135
rclavicle 3.0728743657241976e-16 -4.3064985682852227e-16
rhumerus -43.02824797933053 9.247518600132766 -96.8192945438643
rradius 103.1219547929705
rwrist -19.32433998853687
rhand -18.487089463497014 37.410744695013435
rfingers 7.125020000000001
rthumb 7.987676872949322 7.374075375900096
110
root 0.48803240356094557 17.522995354493617 39.612603700121795 1.4632623691885946 2.342217724173199 -0.022292966918882717
lfemur -12.4014525904964 -0.4822367590630018 -22.79472014335961
ltibia 39.03247015351738
lfoot 7.8119597945812504 -10.940197605997437
ltoes -9.576444900834499
rfemur -21.044533297933704 2.3026647202128805 26.807773808004967
rtibia 56.87345300892306
rfoot 2.128425997970426 -5.686576613951737
rtoes -5.448932529319272
lowerback 13.38189844864053 0.009384226611043767 -0.6259692972374571
upperback -0.4306793848734465 1.1395826148980728 0.7594531036881198
thorax -8.216457418417603 0.7867476104057531 1.2888023800411774
lowerneck -18.847075967130312 -3.7799806266789675 -2.28721043364223
upperneck 14.093200460594488 -5.057768722926622 3.17941409236993
head 7.408058642326037 -2.613689184718185 0.7458940747477794
lclavicle 3.0724827264545893e-16 -4.3067221206564905e-16
lhumerus -41.370649359205494 -15.204734609703308 98.12068035740361
lradius 110.40250727691809
lwrist 32.291345603525905
lhand -25.860084593255433 3.1536992220388416
lfingers 7.125020000000001
lthumb 0.4742086172501048 32.85941865867603
rclavicle 3.0728743657241976e-16 -4.3064985682852227e-16
rhumerus -43.92768033858147 9.015171757372705 -96.91189062553913
rradius 103.09183487933039
rwrist -19.41086069983811
rhand -18.521775093308943 37.36822811595693
rfingers 7.125020000000001
rthumb 7.950176906544412 7.3305540240786895
111
root 0.4976251769779422 17.541772170623037 40.46900654530849 1.611165450594217 2.4459451268437786 0.09377905271623543
lfemur -12.992134438200317 -0.5527928106570772 -23.22228090802137
ltibia 38.22912466945911
lfoot 9.312564496642848 -10.987146479175792
ltoes -9.53557700257396
rfemur -19.951933413848806 2.4406231097076088 27.14694655646916
rtibia 56.745484345881955
rfoot 0.9800011759461599 -6.045575606808143
rtoes -5.597630909835727
lowerback 13.334984946676107 -0.13052048531983695 -0.8446195875232092
upperback -0.41881265183581284 0.88382652238645 0.7126330516707825
thorax -8.174901406218536 0.8048659980124091 1.6134174767735934
lowerneck -18.94865174769063 -3.7364575764641006 -2.3093351151641905
upperneck 14.174342080253004 -4.850292649931059 3.1410792070101086
head 7.4139311009956455 -2.5988720907488028 0.7468807851742671
lclavicle 3.0724827264545893e-16 -4.3067221206564905e-16
lhumerus -41.88409751126924 -15.266618567297416 97.98551910270899
lradius 110.43972403320832
lwrist 32.20293006816347
lhand -25.817401400135527 3.130560910438836
lfingers 7.125020000000001
lthumb 0.49644095483517187 32.927066697018795
rclavicle 3.0728743657241976e-16 -4.3064985682852227e-16
rhumerus -45.17656396831957 8.729947005258591 -97.02536098727184
rradius 103.10232888618316
rwrist -19.40877840477617
rhand -18.506515168447102 37.376794270453814
rfingers 7.125020000000001
rthumb 7.945752955600661 7.394607618295362
112
root 0.490086379819371 17.517919142333184 39.038893679072 1.6030745524607983 2.1544756102422076 -0.010293303227336681
lfemur -11.334751166315876 -0.2988319082830583 -22.67261557449941
ltibia 37.71666751405982
lfoot 9.614976797433165 -11.155841863479635
ltoes -9.232307751915084
rfemur -23.125211942404306 2.0693593040010727 26.492826357176945
rtibia 55.97792310087687
rfoot 0.16149659392144738 -6.108168720013753
rtoes -4.999647307742683
lowerback 13.240485778736 -0.2845475829543266 -1.057535595554328
upperback -0.42031562768358144 0.662530735389153 0.7045518434658729
thorax -8.294296215643172 0.5921605639470322 1.4157089261846683
lowerneck -18.96256512214619 -3.6604017161527724 -2.3304585435906975
upperneck 14.204058120847918 -4.7118131443929805 3.057234129898057
head 7.420605859794868 -2.5725999009905145 0.7551172964587347
lclavicle 3.0724827264545893e-16 -4.3067221206564905e-16
lhumerus -42.72337855235003 -15.527561149754728 97.92437385781102
lradius 110.18707681960484
lwrist 32.18492205867634
lhand -25.772076977202754 3.091778109948569
lfingers 7.125020000000001
lthumb 0.478102532455837 32.87024006309033
rclavicle 3.0728743657241976e-16 -4.3064985682852227e-16
rhumerus -46.036833105789384 8.574814525219896 -97.04596619307493
rradius 103.09981315413367
rwrist -19.36101450734591
rhand -18.498370348023492 37.43584403321813
rfingers 7.125020000000001
rthumb 7.912199667337305 7.352893528992739
113
root 0.5038652644409459 17.563468077104904 39.79371850564435 1.7535739096346132 2.15201024589961 0.0426396268682292
lfemur -12.450172714231803 -0.6452308493095038 -23.619972688967053
ltibia 37.45672335194555
lfoot 8.550983210839052 -11.350813002572288
ltoes -9.034597277532322
rfemur -20.878432895149 2.5847123521557305 27.090518522375387
rtibia 54.97994483434439
rfoot -0.7175876964587321 -6.0996469437464595
rtoes -4.8808556168247
lowerback 13.15193872347037 -0.4140019778507803 -1.1846101321374138
upperback -0.45754080726582125 0.4021251124919427 0.7047116851735807
thorax -8.231252769218838 0.6118099260172072 1.608910798911844
lowerneck -18.968893793865647 -3.6049271161431666 -2.3554168718702013
upperneck 14.203246805180463 -4.636689338419329 2.9607231511721257
head 7.426358117712844 -2.52652786671602 0.7679602019625061
lclavicle 3.0724827264545893e-16 -4.3067221206564905e-16
lhumerus -42.41760952785723 -15.526389868827259 98.02791606097459
lradius 109.88404577244717
lwrist 32.14168441624247
lhand -25.794173853858503 3.028470900342729
lfingers 7.125020000000001
lthumb 0.508015543813471 32.88499900379765
rclavicle 3.0728743657241976e-16 -4.3064985682852227e-16
rhumerus -47.11743598603172 8.38210058391665 -97.09645639527908
rradius 103.12589114242503
rwrist -19.358218089965792
rhand -18.47738718920195 37.457988291084504
rfingers 7.125020000000001
rthumb 7.9259721459045425 7.420945732538048
